<svg width="81" height="42" viewBox="0 0 81 42" fill="none" xmlns="http://www.w3.org/2000/svg">
<path d="M26.0975 2.92225L5.77236 11.837L5.112 16.0063L25.4903 6.7561L15.7539 37.8332L20.4504 38.577L29.8835 3.52189L26.0975 2.92225Z" fill="#0048CF"/>
<path d="M26.0975 2.92225L5.77236 11.837L5.112 16.0063L25.4903 6.7561L15.7539 37.8332L20.4504 38.577L29.8835 3.52189L26.0975 2.92225Z" fill="url(#paint0_linear_2_73)" fill-opacity="0.2"/>
<path d="M28.6392 15.4968L41.9318 21.327L42.3636 24.0538L29.0363 18.0042L35.4039 38.3284L32.3324 38.8149L26.1632 15.889L28.6392 15.4968Z" fill="#0048CF"/>
<path d="M28.6392 15.4968L41.9318 21.327L42.3636 24.0538L29.0363 18.0042L35.4039 38.3284L32.3324 38.8149L26.1632 15.889L28.6392 15.4968Z" fill="url(#paint1_linear_2_73)" fill-opacity="0.2"/>
<path d="M5.808 27.488C5.392 27.488 5.184 27.392 5.184 27.2C5.184 27.04 5.296 26.816 5.52 26.528C5.776 26.208 6.064 25.936 6.384 25.712C7.088 25.264 7.632 24.88 8.016 24.56C8.432 24.24 8.928 23.696 9.504 22.928C9.536 22.992 9.552 23.12 9.552 23.312C9.552 23.728 9.376 24.24 9.024 24.848C8.704 25.424 8.336 25.952 7.92 26.432C7.504 26.912 7.136 27.216 6.816 27.344C6.528 27.44 6.192 27.488 5.808 27.488ZM1.536 39.248C1.28 39.248 1.04 39.152 0.816 38.96C0.592 38.768 0.48 38.512 0.48 38.192C0.48 37.52 0.944 36.288 1.872 34.496L2.4 33.44C2.464 33.376 2.544 33.216 2.64 32.96C2.768 32.704 2.944 32.368 3.168 31.952C3.392 31.504 3.568 31.104 3.696 30.752C3.824 30.4 3.92 30.064 3.984 29.744C3.984 29.712 4.048 29.648 4.176 29.552C4.304 29.456 4.432 29.376 4.56 29.312L4.848 29.264C5.104 29.264 5.312 29.312 5.472 29.408C5.664 29.504 5.728 29.632 5.664 29.792C5.44 30.272 5.248 30.688 5.088 31.04C4.928 31.392 4.8 31.696 4.704 31.952H4.656C4.304 32.752 4 33.52 3.744 34.256C3.52 34.96 3.424 35.632 3.456 36.272L3.504 37.568C3.472 37.888 3.36 38.16 3.168 38.384C3.04 38.48 2.864 38.592 2.64 38.72C2.416 38.88 2.128 39.04 1.776 39.2C1.744 39.232 1.664 39.248 1.536 39.248ZM6.45 41.504C6.194 41.504 5.986 41.344 5.826 41.024C5.698 40.704 5.634 40.4 5.634 40.112C5.634 39.504 5.906 39.2 6.45 39.2H41.97C42.322 39.2 42.61 39.328 42.834 39.584C43.09 39.872 43.25 40.192 43.314 40.544L42.978 40.88C38.146 40.88 33.458 40.896 28.914 40.928C24.402 40.992 20.018 41.088 15.762 41.216C15.122 41.216 14.386 41.232 13.554 41.264C12.722 41.296 12.082 41.328 11.634 41.36C11.058 41.392 10.338 41.424 9.474 41.456C8.61 41.488 7.602 41.504 6.45 41.504ZM52.3699 39.296C52.3059 39.296 52.2419 39.28 52.1779 39.248C52.1139 39.248 52.0499 39.232 51.9859 39.2C51.5379 38.976 51.2499 38.656 51.1219 38.24C50.9939 37.824 50.9619 37.296 51.0259 36.656C51.0899 36.4 51.1539 35.952 51.2179 35.312C51.3139 34.672 51.4259 34.16 51.5539 33.776L49.1059 36.128L47.7619 37.424C46.8339 38.352 46.0659 38.816 45.4579 38.816C45.2019 38.816 44.9939 38.72 44.8339 38.528C44.5459 38.176 44.4019 37.744 44.4019 37.232C44.4019 36.56 44.5779 35.84 44.9299 35.072C45.2819 34.304 45.6979 33.568 46.1779 32.864C46.6579 32.128 47.0899 31.52 47.4739 31.04C48.4339 29.856 49.3619 28.928 50.2579 28.256C51.1859 27.584 52.1459 27.248 53.1379 27.248C53.6819 27.248 54.2099 27.344 54.7219 27.536C55.2659 27.728 55.7619 28.048 56.2099 28.496L56.2579 28.544C56.2579 28.64 56.1779 28.736 56.0179 28.832C55.9539 28.896 55.8899 28.944 55.8259 28.976C55.7939 29.008 55.7619 29.04 55.7299 29.072C55.3459 29.456 54.9139 30.096 54.4339 30.992C53.9539 31.888 53.5379 32.832 53.1859 33.824C52.8339 34.784 52.6579 35.616 52.6579 36.32C52.6579 36.96 52.8179 37.392 53.1379 37.616C53.2979 37.712 53.4739 37.76 53.6659 37.76C54.0819 37.76 54.6579 37.504 55.3939 36.992C55.4259 36.96 55.4899 36.912 55.5859 36.848C55.7139 36.752 55.8899 36.624 56.1139 36.464C56.3699 36.272 56.5779 36.176 56.7379 36.176C56.8979 36.176 56.9779 36.24 56.9779 36.368C56.9779 36.56 56.8499 36.784 56.5939 37.04C56.4019 37.2 56.1779 37.376 55.9219 37.568C55.6979 37.76 55.4259 37.952 55.1059 38.144C54.6259 38.496 54.1299 38.768 53.6179 38.96C53.1059 39.184 52.6899 39.296 52.3699 39.296ZM46.9459 36.224C47.6179 36.224 48.8659 35.232 50.6899 33.248C51.1699 32.704 51.6019 32.192 51.9859 31.712C52.3699 31.2 52.7219 30.704 53.0419 30.224C53.6179 29.296 53.8099 28.656 53.6179 28.304C53.5219 28.112 53.3299 28.016 53.0419 28.016C52.6899 28.016 52.2099 28.208 51.6019 28.592C50.9939 28.944 50.3699 29.408 49.7299 29.984C49.1219 30.56 48.5619 31.136 48.0499 31.712C47.6979 32.16 47.3459 32.784 46.9939 33.584C46.6419 34.384 46.4659 35.04 46.4659 35.552C46.4659 36 46.6259 36.224 46.9459 36.224ZM58.1775 39.584C57.9535 39.584 57.8415 39.392 57.8415 39.008C57.8415 38.688 57.9055 38.304 58.0335 37.856C58.1935 37.408 58.3695 36.992 58.5615 36.608C58.8495 36.064 59.2815 35.104 59.8575 33.728C60.5295 32.224 61.0895 31.024 61.5375 30.128C61.9855 29.2 62.4175 28.496 62.8335 28.016C63.2815 27.472 63.6335 27.2 63.8895 27.2C64.0495 27.2 64.1775 27.312 64.2735 27.536C64.3695 27.728 64.4175 27.952 64.4175 28.208C64.4175 28.464 64.3855 28.624 64.3215 28.688C64.0655 28.944 63.7295 29.376 63.3135 29.984C62.8975 30.592 62.5135 31.2 62.1615 31.808C61.4895 33.056 61.1535 33.984 61.1535 34.592C61.1535 34.656 61.1535 34.72 61.1535 34.784C61.1855 34.848 61.2175 34.912 61.2495 34.976C61.6335 34.784 61.9855 34.592 62.3055 34.4C62.6255 34.208 62.9935 33.936 63.4095 33.584L66.3375 30.896C66.6575 30.608 66.9455 30.368 67.2015 30.176C67.4575 29.984 67.6655 29.824 67.8255 29.696C68.1455 29.472 68.4495 29.36 68.7375 29.36C68.9935 29.36 69.2975 29.52 69.6495 29.84C69.8095 30 69.8895 30.432 69.8895 31.136V32.336C69.8895 32.464 69.8735 32.592 69.8415 32.72C69.8415 32.816 69.8415 32.928 69.8415 33.056C69.8415 33.472 69.8895 33.84 69.9855 34.16C70.1135 34.448 70.2895 34.592 70.5135 34.592C70.6095 34.592 70.7375 34.512 70.8975 34.352L72.2415 32.768C73.3615 31.456 74.2255 30.496 74.8335 29.888C75.4415 29.28 76.1295 28.864 76.8975 28.64C76.9935 28.608 77.0735 28.592 77.1375 28.592C77.2335 28.56 77.3135 28.544 77.3775 28.544C77.6655 28.544 77.9055 28.64 78.0975 28.832C78.3215 29.024 78.3855 29.28 78.2895 29.6C78.1615 30.112 77.9855 30.704 77.7615 31.376C77.5695 32.016 77.3935 32.528 77.2335 32.912C76.8495 33.68 76.6575 34.288 76.6575 34.736C76.6575 35.024 76.7695 35.216 76.9935 35.312C77.2495 35.408 77.4895 35.472 77.7135 35.504C77.9695 35.536 78.0975 35.6 78.0975 35.696C78.7375 35.472 79.2175 35.36 79.5375 35.36C79.8575 35.36 79.9375 35.472 79.7775 35.696C79.6175 35.888 79.3295 36.128 78.9135 36.416C78.4975 36.704 78.0335 36.96 77.5215 37.184C77.0415 37.376 76.6095 37.472 76.2255 37.472C75.4255 37.472 75.0255 37.04 75.0255 36.176C75.0255 35.728 75.0895 35.312 75.2175 34.928C75.6655 33.296 75.8895 32.24 75.8895 31.76C75.8895 31.28 75.7615 31.04 75.5055 31.04C74.9295 31.04 73.6975 32.192 71.8095 34.496C71.6175 34.72 71.3935 34.96 71.1375 35.216C70.9135 35.472 70.6575 35.728 70.3695 35.984C69.9855 36.336 69.6175 36.704 69.2655 37.088C69.0735 37.28 68.8175 37.376 68.4975 37.376C67.8255 37.376 67.4575 37.136 67.3935 36.656C67.3615 36.144 67.3295 35.728 67.2975 35.408C67.2975 35.056 67.2975 34.816 67.2975 34.688C67.2335 33.856 67.1855 33.296 67.1535 33.008C67.1215 32.72 66.9775 32.576 66.7215 32.576C66.4015 32.576 65.6015 33.088 64.3215 34.112C62.5935 35.488 61.0095 37.024 59.5695 38.72C58.9615 39.296 58.4975 39.584 58.1775 39.584Z" fill="#5A5A5A"/>
<defs>
<linearGradient id="paint0_linear_2_73" x1="18.7653" y1="1.76094" x2="13.1182" y2="37.4157" gradientUnits="userSpaceOnUse">
<stop stop-color="white"/>
<stop offset="1" stop-color="#666666"/>
</linearGradient>
<linearGradient id="paint1_linear_2_73" x1="33.4344" y1="14.7373" x2="37.1277" y2="38.0554" gradientUnits="userSpaceOnUse">
<stop stop-color="white"/>
<stop offset="1" stop-color="#666666"/>
</linearGradient>
</defs>
</svg>
